<?xml version="1.0" standalone="no"?><!DOCTYPE svg PUBLIC "-//W3C//DTD SVG 1.1//EN" "http://www.w3.org/Graphics/SVG/1.1/DTD/svg11.dtd"><svg class="icon" height="512" viewBox="0 0 1024 1024" version="1.1" xmlns="http://www.w3.org/2000/svg"><path d="M498.624 783.744 52.672 783.744c-18.944 0-34.368 15.296-34.368 34.24 0 19.072 15.424 34.368 34.368 34.368l445.952 0c18.944 0 34.368-15.296 34.368-34.368C532.992 799.04 517.568 783.744 498.624 783.744L498.624 783.744zM701.952 406.4 701.952 406.4M601.536 715.072c19.008 0 34.24-15.296 34.24-34.304 0-18.944-15.232-34.24-34.24-34.24L155.584 646.528c-18.944 0-34.304 15.296-34.304 34.24 0 19.008 15.36 34.304 34.304 34.304L601.536 715.072 601.536 715.072zM464.32 269.12c-139.712 0-255.36 104.96-272.32 240.192L52.672 509.312c-18.944 0-34.368 15.296-34.368 34.24 0 19.072 15.424 34.24 34.368 34.24l445.952 0c18.944 0 34.368-15.168 34.368-34.24 0-18.944-15.36-34.24-34.368-34.24L261.312 509.312c16.384-97.28 101.184-171.584 203.008-171.584 113.536 0 205.824 92.288 205.824 205.824 0 18.816-2.496 37.376-7.488 55.168-5.056 18.24 5.632 37.12 23.936 42.176 3.072 0.896 6.144 1.28 9.216 1.28 15.04 0 28.8-9.856 33.024-25.088 6.656-23.872 9.92-48.64 9.92-73.536C738.752 392.256 615.616 269.12 464.32 269.12L464.32 269.12zM486.848 196.416c16.64 0 30.144-12.928 30.144-28.864L516.992 28.672C516.992 12.8 503.488 0 486.848 0c-16.576 0-30.08 12.8-30.08 28.672l0 138.816C456.832 183.488 470.336 196.416 486.848 196.416L486.848 196.416zM486.848 196.416M486.848 1024c16.64 0 30.144-12.8 30.144-28.8l0-56.064c0-15.872-13.504-28.672-30.144-28.672-16.576 0-30.08 12.8-30.08 28.672l0 56.064C456.832 1011.2 470.336 1024 486.848 1024L486.848 1024zM486.848 1024M222.72 284.16c5.824 5.568 13.568 8.512 21.248 8.512 7.744 0 15.424-2.944 21.312-8.512 11.776-11.2 11.776-29.376 0-40.64L162.56 145.344c-11.712-11.264-30.72-11.264-42.56 0-11.776 11.2-11.712 29.504 0 40.704L222.72 284.16 222.72 284.16zM222.72 284.16M750.976 708.032c-11.712-11.328-30.784-11.328-42.496 0-11.712 11.392-11.712 29.568 0 40.768l102.656 98.24c5.952 5.696 13.632 8.32 21.312 8.32s15.36-2.624 21.248-8.32c11.712-11.2 11.712-29.44 0-40.64L750.976 708.032 750.976 708.032zM750.976 708.032M975.616 467.52l-145.28 0c-16.576 0-30.08 12.864-30.08 28.8 0 15.872 13.632 28.672 30.08 28.672l145.28 0c16.576-0.064 30.08-12.864 30.08-28.864C1005.696 480.192 992.192 467.52 975.616 467.52L975.616 467.52zM975.616 467.52M729.792 292.672c7.616 0 15.296-2.944 21.184-8.512l102.656-98.176c11.712-11.2 11.712-29.504 0-40.704-11.776-11.264-30.72-11.264-42.56 0L708.48 243.52c-11.712 11.264-11.712 29.44 0 40.64C714.432 289.728 722.112 292.672 729.792 292.672L729.792 292.672zM729.792 292.672" /></svg>